# xmcd
#
# Track frame offsets:
#	150
#	29345
#	41510
#	56450
#	68927
#	82837
#	98817
#	117045
#	127392
#	143512
#	164277
#	185392
#	202157
#	227740
#	238447
#	250187
#	263905
#	276207
#
# Disc length: 3939
#
# Revision: 5
# Processed by: cddbd v1.5.1PL0 Copyright (c) Steve Scherf et al.
# Submitted via: FreeRIP 2.51 
# Normalized: r4:DSETVAR1,TDELIM( - )
#
DISCID=040f6112
DTITLE=Various Artist - Raw Blues - The Way I feel the Blues
DYEAR=1999
DGENRE=Blues
TTITLE0=Muddy Waters - Howlin' Wolf
TTITLE1=John Lee Hooker - I'm in the mood
TTITLE2=S. Terry and B. McGhee - Walk On
TTITLE3=Lightnin' Hopkins - My Baby's Gone
TTITLE4=Eric Clapton and The Yardbirds - Draggin' My Tail
TTITLE5=The Animals - Dimples
TTITLE6=Ligthning Slim - Hoodoo Blues
TTITLE7=Mississippi John Hurt - My Creole Bell
TTITLE8=Skeleton Crew - Song for Frank
TTITLE9=Boddy Guy and Junior Wells - Just to be with you
TTITLE10=The Electric Flag - I was robbed last nigth
TTITLE11=Roy Brown - Travellin' Blues
TTITLE12=Percy Mayfield - Two years or torture
TTITLE13=Big Joes Williams - Baby Please Don't Go
TTITLE14=Blind Willie McTell - Statesboro Blues
TTITLE15=Roosevelt Sykes - The way I feel the blues
TTITLE16=Big Bill Broonzy - Conversation with the blues
TTITLE17=Leadbelly - John Hardy
EXTD=
EXTT0=
EXTT1=
EXTT2=
EXTT3=
EXTT4=
EXTT5=
EXTT6=
EXTT7=
EXTT8=
EXTT9=
EXTT10=
EXTT11=
EXTT12=
EXTT13=
EXTT14=
EXTT15=
EXTT16=
EXTT17=
PLAYORDER=
